<?xml version="1.0" encoding="UTF-8"?>
<svg width="324px" height="106px" viewBox="0 0 324 106" version="1.1" xmlns="http://www.w3.org/2000/svg" xmlns:xlink="http://www.w3.org/1999/xlink">
    <!-- Generator: Sketch 43.2 (39069) - http://www.bohemiancoding.com/sketch -->
    <title>bishack</title>
    <desc>Created with Sketch.</desc>
    <defs></defs>
    <g id="Default" stroke="none" stroke-width="1" fill="none" fill-rule="evenodd">
        <g id="bishack" transform="translate(1.000000, 0.000000)">
            <path d="M12.6225043,10.5207549 L12.6225043,55.9891529 C17.571022,50.8638651 23.179258,48.3012596 29.4473805,48.3012596 C36.6685509,48.3012596 42.6799934,50.9919953 47.4818884,56.3735476 C52.2837834,61.7184907 54.6846949,68.381265 54.6846949,76.3620704 C54.6846949,84.5991403 52.2654558,91.4083492 47.4269051,96.7899014 C42.6250101,102.134845 36.5585849,104.807276 29.2274475,104.807276 C23.0326364,104.807276 17.4977107,102.427714 12.6225043,97.6685178 L12.6225043,103.269697 L0.251271765,103.269697 L0.251271765,10.5207549 L12.6225043,10.5207549 Z M42.0385461,76.9112057 C42.0385461,71.7859178 40.6456509,67.6125317 37.8598186,64.3909222 C35.0373307,61.0960942 31.50011,59.448705 27.2480503,59.448705 C22.7027451,59.448705 19.0005762,61.0411813 16.1414327,64.2261816 C13.3189448,67.3745727 11.907722,71.4747415 11.907722,76.526811 C11.907722,81.7253173 13.3006172,85.8803991 16.0864494,88.992181 C18.8722816,92.1771813 22.5377953,93.7696576 27.0831005,93.7696576 C31.3718159,93.7696576 34.9273642,92.1771813 37.7498521,88.992181 C40.6089957,85.7705715 42.0385461,81.74362 42.0385461,76.9112057 Z M70.7916467,49.7839247 L70.7916467,103.269697 L58.4204142,103.269697 L58.4204142,49.7839247 L70.7916467,49.7839247 Z M56.5509835,27.5439474 C56.5509835,25.3840047 57.3390689,23.5169635 58.9152635,21.9427679 C60.491458,20.3685724 62.3791976,19.5814864 64.5785388,19.5814864 C66.8145357,19.5814864 68.7206029,20.3685724 70.2967974,21.9427679 C71.872992,23.4803543 72.6610774,25.3656998 72.6610774,27.5988609 C72.6610774,29.8320221 71.872992,31.7356719 70.2967974,33.3098674 C68.7572586,34.884063 66.869519,35.671149 64.6335221,35.671149 C62.3975252,35.671149 60.491458,34.884063 58.9152635,33.3098674 C57.3390689,31.7356719 56.5509835,29.8137178 56.5509835,27.5439474 Z M108.232102,58.8995697 L98.0052162,64.3360086 C96.3923659,61.0411807 94.394661,59.3937914 92.0120413,59.3937914 C90.875715,59.3937914 89.9043539,59.7690301 89.0979288,60.5195187 C88.2915036,61.2700073 87.8882971,62.2309843 87.8882971,63.4024787 C87.8882971,65.4525939 90.2708811,67.484374 95.0361204,69.4978799 C101.597488,72.3167882 106.014432,74.9160024 108.287085,77.2956003 C110.559738,79.6751983 111.696047,82.8784552 111.696047,86.9054671 C111.696047,92.0673642 109.78998,96.3871849 105.977788,99.8650588 C102.275564,103.159887 97.8036371,104.807276 92.5618739,104.807276 C83.5812305,104.807276 77.2215642,100.432542 73.4826841,91.6829437 L84.0394692,86.79564 C85.5056967,89.358284 86.6236784,90.9873689 87.3934478,91.6829437 C88.896331,93.0740933 90.6924327,93.7696576 92.7818069,93.7696576 C96.9605552,93.7696576 99.049898,91.8660078 99.049898,88.0586511 C99.049898,85.8620991 97.437072,83.8120147 94.2113715,81.9083364 C92.9650782,81.28598 91.7188035,80.6819373 90.4725101,80.0961901 C89.2262168,79.5104429 87.9616146,78.9064002 86.6786655,78.2840438 C83.0864082,76.5268022 80.5572037,74.769587 79.0909762,73.0123455 C77.2215362,70.7791843 76.2868302,67.9054053 76.2868302,64.3909222 C76.2868302,59.7415539 77.8813287,55.8976456 81.0703734,52.8590821 C84.3327296,49.8205185 88.2914844,48.3012596 92.9467567,48.3012596 C99.8013701,48.3012596 104.896434,51.8339943 108.232102,58.8995697 Z M113.452369,10.5207549 L125.823601,10.5207549 L125.823601,54.2319202 C130.222284,50.2781267 135.07909,48.3012596 140.394164,48.3012596 C146.442353,48.3012596 151.280831,50.2598223 154.909744,54.1770066 C157.988821,57.5816622 159.528337,63.0180467 159.528337,70.4863233 L159.528337,103.269697 L147.157105,103.269697 L147.157105,71.6395074 C147.157105,67.356231 146.396511,64.253648 144.8753,62.331665 C143.354089,60.409682 140.907358,59.448705 137.535035,59.448705 C133.209664,59.448705 130.167287,60.7849207 128.407814,63.4573922 C126.684997,66.166473 125.823601,70.8157715 125.823601,77.4054274 L125.823601,103.269697 L113.452369,103.269697 L113.452369,10.5207549 Z M205.326247,49.7839247 L217.752463,49.7839247 L217.752463,103.269697 L205.326247,103.269697 L205.326247,97.6685178 C200.231107,102.427714 194.751164,104.807276 188.886254,104.807276 C181.481805,104.807276 175.360397,102.134845 170.521846,96.7899014 C165.719951,91.3351308 163.31904,84.5259219 163.31904,76.3620704 C163.31904,68.3446558 165.719951,61.6635772 170.521846,56.3186341 C175.323741,50.973691 181.335184,48.3012596 188.556354,48.3012596 C194.787821,48.3012596 200.377729,50.8638651 205.326247,55.9891529 L205.326247,49.7839247 Z M175.965189,76.3620704 C175.965189,81.4873583 177.339756,85.6607444 180.088933,88.882354 C182.911421,92.1405727 186.466969,93.7696576 190.755684,93.7696576 C195.337645,93.7696576 199.039814,92.1954857 201.862302,89.0470945 C204.68479,85.7888758 206.096013,81.6520983 206.096013,76.6366381 C206.096013,71.6211778 204.68479,67.4844003 201.862302,64.2261816 C199.039814,61.0411813 195.3743,59.448705 190.865651,59.448705 C186.613591,59.448705 183.058043,61.0594856 180.198899,64.2810951 C177.376411,67.5393138 175.965189,71.5662653 175.965189,76.3620704 Z M265.69472,52.0902927 L265.69472,68.5094365 C262.872232,65.0681717 260.343027,62.7069138 258.10703,61.4255918 C255.907689,60.1076607 253.323502,59.448705 250.354391,59.448705 C245.699119,59.448705 241.832002,61.0777899 238.752924,64.3360086 C235.673847,67.5942274 234.134331,71.6760918 234.134331,76.5817245 C234.134331,81.5971848 235.618864,85.715658 238.587975,88.9372675 C241.593741,92.158877 245.424203,93.7696576 250.079475,93.7696576 C253.048586,93.7696576 255.669428,93.1290062 257.942081,91.8476843 C260.141422,90.6029715 262.725609,88.1868006 265.69472,84.5990991 L265.69472,100.908416 C260.672891,103.507669 255.651137,104.807276 250.629308,104.807276 C242.345122,104.807276 235.417301,102.134845 229.845637,96.7899014 C224.273973,91.4083492 221.488182,84.7272705 221.488182,76.7464651 C221.488182,68.7656597 224.310628,62.0296681 229.955604,56.5382882 C235.600579,51.0469083 242.5284,48.3012596 250.739274,48.3012596 C256.017693,48.3012596 261.002792,49.564258 265.69472,52.0902927 Z M280.702006,10.5207549 L280.702006,67.0816848 L298.131698,49.7839247 L314.736642,49.7839247 L291.478725,72.2435561 L316.441123,103.269697 L300.386012,103.269697 L282.681404,80.7002388 L280.702006,82.6771257 L280.702006,103.269697 L268.330774,103.269697 L268.330774,10.5207549 L280.702006,10.5207549 Z" id="red_outline" stroke="#FF0000" stroke-width="2"></path>
            <path d="M18.9558376,0.400272967 L18.9558376,45.868671 C23.9043554,40.7433831 29.5125914,38.1807776 35.7807139,38.1807776 C43.0018842,38.1807776 49.0133267,40.8715134 53.8152217,46.2530657 C58.6171167,51.5980088 61.0180282,58.2607831 61.0180282,66.2415885 C61.0180282,74.4786583 58.5987892,81.2878672 53.7602385,86.6694195 C48.9583435,92.0143626 42.8919183,94.6867941 35.5607808,94.6867941 C29.3659697,94.6867941 23.831044,92.3072318 18.9558376,87.5480359 L18.9558376,93.1492154 L6.5846051,93.1492154 L18.9558376,0.400272967 Z M48.3718794,66.7907237 C48.3718794,61.6654359 46.9789842,57.4920498 44.193152,54.2704402 C41.3706641,50.9756123 37.8334433,49.328223 33.5813836,49.328223 C29.0360784,49.328223 25.3339096,50.9206993 22.474766,54.1056997 C19.6522781,57.2540908 18.2410553,61.3542596 18.2410553,66.4063291 C18.2410553,71.6048354 19.6339505,75.7599171 22.4197827,78.8716991 C25.205615,82.0566994 28.8711287,83.6491757 33.4164339,83.6491757 C37.7051493,83.6491757 41.2606976,82.0566994 44.0831855,78.8716991 C46.9423291,75.6500895 48.3718794,71.623138 48.3718794,66.7907237 Z M77.12498,39.6634428 L77.12498,93.1492154 L64.7537475,93.1492154 L77.12498,39.6634428 Z M62.8843168,17.4234655 C62.8843168,15.2635227 63.6724023,13.3964816 65.2485968,11.822286 C66.8247914,10.2480904 68.7125309,9.46100446 70.9118721,9.46100446 C73.1478691,9.46100446 75.0539362,10.2480904 76.6301307,11.822286 C78.2063253,13.3598724 78.9944107,15.2452178 78.9944107,17.478379 C78.9944107,19.7115401 78.2063253,21.61519 76.6301307,23.1893855 C75.0905919,24.7635811 73.2028523,25.5506671 70.9668554,25.5506671 C68.7308585,25.5506671 66.8247914,24.7635811 65.2485968,23.1893855 C63.6724023,21.61519 62.8843168,19.6932358 62.8843168,17.4234655 Z M114.565435,48.7790878 L104.33855,54.2155267 C102.725699,50.9206988 100.727994,49.2733095 98.3453746,49.2733095 C97.2090483,49.2733095 96.2376872,49.6485482 95.4312621,50.3990368 C94.624837,51.1495254 94.2216305,52.1105024 94.2216305,53.2819968 C94.2216305,55.3321119 96.6042144,57.363892 101.369454,59.377398 C107.930822,62.1963063 112.347766,64.7955205 114.620418,67.1751184 C116.893071,69.5547164 118.02938,72.7579732 118.02938,76.7849852 C118.02938,81.9468822 116.123313,86.2667029 112.311122,89.7445769 C108.608897,93.0394048 104.13697,94.6867941 98.8952072,94.6867941 C89.9145639,94.6867941 90.3728026,76.6751581 90.3728026,76.6751581 C91.8390301,79.2378021 92.9570117,80.866887 93.7267812,81.5624618 C95.2296643,82.9536113 97.0257661,83.6491757 99.1151402,83.6491757 C103.293889,83.6491757 105.383231,81.7455259 105.383231,77.9381692 C105.383231,75.7416172 103.770405,73.6915328 100.544705,71.7878545 C99.2984115,71.1654981 98.0521368,70.5614553 96.8058435,69.9757082 C95.5595501,69.389961 94.2949479,68.7859182 93.0119988,68.1635619 C89.4197415,66.4063203 86.890537,64.6491051 85.4243096,62.8918635 C83.5548695,60.6587024 82.6201635,57.7849233 82.6201635,54.2704402 C82.6201635,49.6210719 84.214662,45.7771637 87.4037068,42.7386001 C90.6660629,39.7000366 94.6248177,38.1807776 99.28009,38.1807776 C106.134703,38.1807776 111.229768,41.7135124 114.565435,48.7790878 Z M132.156935,0.400272967 L132.156935,44.1114382 C136.555617,40.1576447 141.412423,38.1807776 146.727498,38.1807776 C152.775686,38.1807776 157.614164,40.1393404 161.243077,44.0565247 C164.322155,47.4611802 165.861671,52.8975648 165.861671,60.3658414 L153.490438,93.1492154 L153.490438,61.5190254 C153.490438,57.2357491 152.729844,54.133166 151.208633,52.2111831 C149.687422,50.2892001 147.240691,49.328223 143.868368,49.328223 C139.542997,49.328223 136.500621,50.6644388 134.741148,53.3369103 C133.018331,56.0459911 132.156935,60.6952896 132.156935,67.2849455 L132.156935,93.1492154 L119.785702,93.1492154 L132.156935,0.400272967 Z M211.65958,39.6634428 L224.085796,39.6634428 L211.65958,93.1492154 L211.65958,87.5480359 C206.56444,92.3072318 201.084497,94.6867941 195.219587,94.6867941 C187.815138,94.6867941 181.69373,92.0143626 176.85518,86.6694195 C172.053285,81.2146488 169.652373,74.4054399 169.652373,66.2415885 C169.652373,58.2241739 172.053285,51.5430952 176.85518,46.1981522 C181.657075,40.8532091 187.668517,38.1807776 194.889687,38.1807776 C201.121154,38.1807776 206.711063,40.7433831 211.65958,45.868671 L211.65958,39.6634428 Z M182.298522,66.2415885 C182.298522,71.3668764 183.67309,75.5402625 186.422266,78.761872 C189.244754,82.0200908 192.800302,83.6491757 197.089018,83.6491757 C201.670979,83.6491757 205.373147,82.0750037 208.195635,78.9266126 C211.018123,75.6683939 212.429346,71.5316164 212.429346,66.5161561 C212.429346,61.5006958 211.018123,57.3639184 208.195635,54.1056997 C205.373147,50.9206993 201.707634,49.328223 197.198984,49.328223 C192.946924,49.328223 189.391376,50.9390036 186.532233,54.1606132 C183.709745,57.4188319 182.298522,61.4457834 182.298522,66.2415885 Z M272.028053,41.9698108 L272.028053,58.3889545 C269.205565,54.9476898 266.676361,52.5864319 264.440364,51.3051099 C262.241023,49.9871787 259.656835,49.328223 256.687725,49.328223 C252.032452,49.328223 248.165335,50.957308 245.086258,54.2155267 C242.00718,57.4737454 240.467664,61.5556099 240.467664,66.4612426 C240.467664,71.4767029 241.952197,75.595176 244.921308,78.8167856 C247.927074,82.0383951 251.757536,83.6491757 256.412808,83.6491757 C259.381919,83.6491757 262.002761,83.0085243 264.275414,81.7272023 C266.474755,80.4824896 269.058942,78.0663187 272.028053,74.4786171 C272.028053,74.4786171 261.98447,94.6867941 256.962641,94.6867941 C248.678456,94.6867941 241.750635,92.0143626 236.17897,86.6694195 C230.607306,81.2878672 227.821515,74.6067886 227.821515,66.6259832 C227.821515,58.6451778 230.643961,51.9091861 236.288937,46.4178063 C241.933913,40.9264264 248.861734,38.1807776 257.072608,38.1807776 C262.351026,38.1807776 267.336125,39.4437761 272.028053,41.9698108 Z M287.03534,0.400272967 L287.03534,56.9612029 L304.465032,39.6634428 L321.069975,39.6634428 L297.812058,62.1230742 L322.774456,93.1492154 L289.014737,70.5797569 L287.03534,72.5566438 L287.03534,93.1492154 L274.664107,93.1492154 L287.03534,0.400272967 Z" id="fill" fill="#1D00FF"></path>
            <path d="M62.8843168,17.4234655 C62.8843168,15.2635227 63.6724023,13.3964816 65.2485968,11.822286 C66.8247914,10.2480904 68.7125309,9.46100446 70.9118721,9.46100446 C73.1478691,9.46100446 75.0539362,10.2480904 76.6301307,11.822286 C78.2063253,13.3598724 78.9944107,15.2452178 78.9944107,17.478379 C78.9944107,19.7115401 78.2063253,21.61519 76.6301307,23.1893855 C75.0905919,24.7635811 73.2028523,25.5506671 70.9668554,25.5506671 C68.7308585,25.5506671 66.8247914,24.7635811 65.2485968,23.1893855 C63.6724023,21.61519 62.8843168,19.6932358 62.8843168,17.4234655 Z" id="Path" stroke="#FF0000" fill="#D0011B"></path>
        </g>
    </g>
</svg>