<?xml version="1.0" encoding="UTF-8"?>
<svg width="317px" height="95px" viewBox="0 0 317 95" version="1.1" xmlns="http://www.w3.org/2000/svg" xmlns:xlink="http://www.w3.org/1999/xlink">
    <!-- Generator: Sketch 43.2 (39069) - http://www.bohemiancoding.com/sketch -->
    <title>logo</title>
    <desc>Created with Sketch.</desc>
    <defs></defs>
    <g id="bishack.dev" stroke="none" stroke-width="1" fill="none" fill-rule="evenodd">
        <g id="logo" transform="translate(-4.000000, 0.000000)">
            <path d="M16.9558376,0.400272967 L16.9558376,45.868671 C21.9043554,40.7433831 27.5125914,38.1807776 33.7807139,38.1807776 C41.0018842,38.1807776 47.0133267,40.8715134 51.8152217,46.2530657 C56.6171167,51.5980088 59.0180282,58.2607831 59.0180282,66.2415885 C59.0180282,74.4786583 56.5987892,81.2878672 51.7602385,86.6694195 C46.9583435,92.0143626 40.8919183,94.6867941 33.5607808,94.6867941 C27.3659697,94.6867941 21.831044,92.3072318 16.9558376,87.5480359 L16.9558376,93.1492154 L4.5846051,93.1492154 L16.9558376,0.400272967 Z M46.3718794,66.7907237 C46.3718794,61.6654359 44.9789842,57.4920498 42.193152,54.2704402 C39.3706641,50.9756123 35.8334433,49.328223 31.5813836,49.328223 C27.0360784,49.328223 23.3339096,50.9206993 20.474766,54.1056997 C17.6522781,57.2540908 16.2410553,61.3542596 16.2410553,66.4063291 C16.2410553,71.6048354 17.6339505,75.7599171 20.4197827,78.8716991 C23.205615,82.0566994 26.8711287,83.6491757 31.4164339,83.6491757 C35.7051493,83.6491757 39.2606976,82.0566994 42.0831855,78.8716991 C44.9423291,75.6500895 46.3718794,71.623138 46.3718794,66.7907237 Z M75.12498,39.6634428 L75.12498,93.1492154 L62.7537475,93.1492154 L75.12498,39.6634428 Z M60.8843168,17.4234655 C60.8843168,15.2635227 61.6724023,13.3964816 63.2485968,11.822286 C64.8247914,10.2480904 66.7125309,9.46100446 68.9118721,9.46100446 C71.1478691,9.46100446 73.0539362,10.2480904 74.6301307,11.822286 C76.2063253,13.3598724 76.9944107,15.2452178 76.9944107,17.478379 C76.9944107,19.7115401 76.2063253,21.61519 74.6301307,23.1893855 C73.0905919,24.7635811 71.2028523,25.5506671 68.9668554,25.5506671 C66.7308585,25.5506671 64.8247914,24.7635811 63.2485968,23.1893855 C61.6724023,21.61519 60.8843168,19.6932358 60.8843168,17.4234655 Z M112.565435,48.7790878 L102.33855,54.2155267 C100.725699,50.9206988 98.7279943,49.2733095 96.3453746,49.2733095 C95.2090483,49.2733095 94.2376872,49.6485482 93.4312621,50.3990368 C92.624837,51.1495254 92.2216305,52.1105024 92.2216305,53.2819968 C92.2216305,55.3321119 94.6042144,57.363892 99.3694537,59.377398 C105.930822,62.1963063 110.347766,64.7955205 112.620418,67.1751184 C114.893071,69.5547164 116.02938,72.7579732 116.02938,76.7849852 C116.02938,81.9468822 114.123313,86.2667029 110.311122,89.7445769 C106.608897,93.0394048 102.13697,94.6867941 96.8952072,94.6867941 C87.9145639,94.6867941 88.3728026,76.6751581 88.3728026,76.6751581 C89.8390301,79.2378021 90.9570117,80.866887 91.7267812,81.5624618 C93.2296643,82.9536113 95.0257661,83.6491757 97.1151402,83.6491757 C101.293889,83.6491757 103.383231,81.7455259 103.383231,77.9381692 C103.383231,75.7416172 101.770405,73.6915328 98.5447049,71.7878545 C97.2984115,71.1654981 96.0521368,70.5614553 94.8058435,69.9757082 C93.5595501,69.389961 92.2949479,68.7859182 91.0119988,68.1635619 C87.4197415,66.4063203 84.890537,64.6491051 83.4243096,62.8918635 C81.5548695,60.6587024 80.6201635,57.7849233 80.6201635,54.2704402 C80.6201635,49.6210719 82.214662,45.7771637 85.4037068,42.7386001 C88.6660629,39.7000366 92.6248177,38.1807776 97.28009,38.1807776 C104.134703,38.1807776 109.229768,41.7135124 112.565435,48.7790878 Z M130.156935,0.400272967 L130.156935,44.1114382 C134.555617,40.1576447 139.412423,38.1807776 144.727498,38.1807776 C150.775686,38.1807776 155.614164,40.1393404 159.243077,44.0565247 C162.322155,47.4611802 163.861671,52.8975648 163.861671,60.3658414 L151.490438,93.1492154 L151.490438,61.5190254 C151.490438,57.2357491 150.729844,54.133166 149.208633,52.2111831 C147.687422,50.2892001 145.240691,49.328223 141.868368,49.328223 C137.542997,49.328223 134.500621,50.6644388 132.741148,53.3369103 C131.018331,56.0459911 130.156935,60.6952896 130.156935,67.2849455 L130.156935,93.1492154 L117.785702,93.1492154 L130.156935,0.400272967 Z M209.65958,39.6634428 L222.085796,39.6634428 L209.65958,93.1492154 L209.65958,87.5480359 C204.56444,92.3072318 199.084497,94.6867941 193.219587,94.6867941 C185.815138,94.6867941 179.69373,92.0143626 174.85518,86.6694195 C170.053285,81.2146488 167.652373,74.4054399 167.652373,66.2415885 C167.652373,58.2241739 170.053285,51.5430952 174.85518,46.1981522 C179.657075,40.8532091 185.668517,38.1807776 192.889687,38.1807776 C199.121154,38.1807776 204.711063,40.7433831 209.65958,45.868671 L209.65958,39.6634428 Z M180.298522,66.2415885 C180.298522,71.3668764 181.67309,75.5402625 184.422266,78.761872 C187.244754,82.0200908 190.800302,83.6491757 195.089018,83.6491757 C199.670979,83.6491757 203.373147,82.0750037 206.195635,78.9266126 C209.018123,75.6683939 210.429346,71.5316164 210.429346,66.5161561 C210.429346,61.5006958 209.018123,57.3639184 206.195635,54.1056997 C203.373147,50.9206993 199.707634,49.328223 195.198984,49.328223 C190.946924,49.328223 187.391376,50.9390036 184.532233,54.1606132 C181.709745,57.4188319 180.298522,61.4457834 180.298522,66.2415885 Z M270.028053,41.9698108 L270.028053,58.3889545 C267.205565,54.9476898 264.676361,52.5864319 262.440364,51.3051099 C260.241023,49.9871787 257.656835,49.328223 254.687725,49.328223 C250.032452,49.328223 246.165335,50.957308 243.086258,54.2155267 C240.00718,57.4737454 238.467664,61.5556099 238.467664,66.4612426 C238.467664,71.4767029 239.952197,75.595176 242.921308,78.8167856 C245.927074,82.0383951 249.757536,83.6491757 254.412808,83.6491757 C257.381919,83.6491757 260.002761,83.0085243 262.275414,81.7272023 C264.474755,80.4824896 267.058942,78.0663187 270.028053,74.4786171 C270.028053,74.4786171 259.98447,94.6867941 254.962641,94.6867941 C246.678456,94.6867941 239.750635,92.0143626 234.17897,86.6694195 C228.607306,81.2878672 225.821515,74.6067886 225.821515,66.6259832 C225.821515,58.6451778 228.643961,51.9091861 234.288937,46.4178063 C239.933913,40.9264264 246.861734,38.1807776 255.072608,38.1807776 C260.351026,38.1807776 265.336125,39.4437761 270.028053,41.9698108 Z M285.03534,0.400272967 L285.03534,56.9612029 L302.465032,39.6634428 L319.069975,39.6634428 L295.812058,62.1230742 L320.774456,93.1492154 L287.014737,70.5797569 L285.03534,72.5566438 L285.03534,93.1492154 L272.664107,93.1492154 L285.03534,0.400272967 Z M60.8843168,17.4234655 C60.8843168,15.2635227 61.6724023,13.3964816 63.2485968,11.822286 C64.8247914,10.2480904 66.7125309,9.46100446 68.9118721,9.46100446 C71.1478691,9.46100446 73.0539362,10.2480904 74.6301307,11.822286 C76.2063253,13.3598724 76.9944107,15.2452178 76.9944107,17.478379 C76.9944107,19.7115401 76.2063253,21.61519 74.6301307,23.1893855 C73.0905919,24.7635811 71.2028523,25.5506671 68.9668554,25.5506671 C66.7308585,25.5506671 64.8247914,24.7635811 63.2485968,23.1893855 C61.6724023,21.61519 60.8843168,19.6932358 60.8843168,17.4234655 Z" id="fill" fill="#1D00FF"></path>
            <path d="M57.0843168,22.4837064 C57.0843168,20.3237637 57.8724023,18.4567225 59.4485968,16.882527 C61.0247914,15.3083314 62.9125309,14.5212454 65.1118721,14.5212454 C67.3478691,14.5212454 69.2539362,15.3083314 70.8301307,16.882527 C72.4063253,18.4201133 73.1944107,20.3054588 73.1944107,22.53862 C73.1944107,24.7717811 72.4063253,26.6754309 70.8301307,28.2496265 C69.2905919,29.823822 67.4028523,30.610908 65.1668554,30.610908 C62.9308585,30.610908 61.0247914,29.823822 59.4485968,28.2496265 C57.8724023,26.6754309 57.0843168,24.7534768 57.0843168,22.4837064 Z" id="Path" fill="#FF0000"></path>
        </g>
    </g>
</svg>