<?xml version="1.0" encoding="UTF-8"?>
<svg width="317px" height="95px" viewBox="0 0 317 95" version="1.1" xmlns="http://www.w3.org/2000/svg" xmlns:xlink="http://www.w3.org/1999/xlink">
    <!-- Generator: Sketch 43.2 (39069) - http://www.bohemiancoding.com/sketch -->
    <title>logo</title>
    <desc>Created with Sketch.</desc>
    <defs></defs>
    <g id="bishack.dev" stroke="none" stroke-width="1" fill="none" fill-rule="evenodd">
        <g id="logo" transform="translate(-6.000000, 0.000000)">
            <path d="M18.9558376,0.400272967 L18.9558376,45.868671 C23.9043554,40.7433831 29.5125914,38.1807776 35.7807139,38.1807776 C43.0018842,38.1807776 49.0133267,40.8715134 53.8152217,46.2530657 C58.6171167,51.5980088 61.0180282,58.2607831 61.0180282,66.2415885 C61.0180282,74.4786583 58.5987892,81.2878672 53.7602385,86.6694195 C48.9583435,92.0143626 42.8919183,94.6867941 35.5607808,94.6867941 C29.3659697,94.6867941 23.831044,92.3072318 18.9558376,87.5480359 L18.9558376,93.1492154 L6.5846051,93.1492154 L18.9558376,0.400272967 Z M48.3718794,66.7907237 C48.3718794,61.6654359 46.9789842,57.4920498 44.193152,54.2704402 C41.3706641,50.9756123 37.8334433,49.328223 33.5813836,49.328223 C29.0360784,49.328223 25.3339096,50.9206993 22.474766,54.1056997 C19.6522781,57.2540908 18.2410553,61.3542596 18.2410553,66.4063291 C18.2410553,71.6048354 19.6339505,75.7599171 22.4197827,78.8716991 C25.205615,82.0566994 28.8711287,83.6491757 33.4164339,83.6491757 C37.7051493,83.6491757 41.2606976,82.0566994 44.0831855,78.8716991 C46.9423291,75.6500895 48.3718794,71.623138 48.3718794,66.7907237 Z M77.12498,39.6634428 L77.12498,93.1492154 L64.7537475,93.1492154 L77.12498,39.6634428 Z M62.8843168,17.4234655 C62.8843168,15.2635227 63.6724023,13.3964816 65.2485968,11.822286 C66.8247914,10.2480904 68.7125309,9.46100446 70.9118721,9.46100446 C73.1478691,9.46100446 75.0539362,10.2480904 76.6301307,11.822286 C78.2063253,13.3598724 78.9944107,15.2452178 78.9944107,17.478379 C78.9944107,19.7115401 78.2063253,21.61519 76.6301307,23.1893855 C75.0905919,24.7635811 73.2028523,25.5506671 70.9668554,25.5506671 C68.7308585,25.5506671 66.8247914,24.7635811 65.2485968,23.1893855 C63.6724023,21.61519 62.8843168,19.6932358 62.8843168,17.4234655 Z M114.565435,48.7790878 L104.33855,54.2155267 C102.725699,50.9206988 100.727994,49.2733095 98.3453746,49.2733095 C97.2090483,49.2733095 96.2376872,49.6485482 95.4312621,50.3990368 C94.624837,51.1495254 94.2216305,52.1105024 94.2216305,53.2819968 C94.2216305,55.3321119 96.6042144,57.363892 101.369454,59.377398 C107.930822,62.1963063 112.347766,64.7955205 114.620418,67.1751184 C116.893071,69.5547164 118.02938,72.7579732 118.02938,76.7849852 C118.02938,81.9468822 116.123313,86.2667029 112.311122,89.7445769 C108.608897,93.0394048 104.13697,94.6867941 98.8952072,94.6867941 C89.9145639,94.6867941 90.3728026,76.6751581 90.3728026,76.6751581 C91.8390301,79.2378021 92.9570117,80.866887 93.7267812,81.5624618 C95.2296643,82.9536113 97.0257661,83.6491757 99.1151402,83.6491757 C103.293889,83.6491757 105.383231,81.7455259 105.383231,77.9381692 C105.383231,75.7416172 103.770405,73.6915328 100.544705,71.7878545 C99.2984115,71.1654981 98.0521368,70.5614553 96.8058435,69.9757082 C95.5595501,69.389961 94.2949479,68.7859182 93.0119988,68.1635619 C89.4197415,66.4063203 86.890537,64.6491051 85.4243096,62.8918635 C83.5548695,60.6587024 82.6201635,57.7849233 82.6201635,54.2704402 C82.6201635,49.6210719 84.214662,45.7771637 87.4037068,42.7386001 C90.6660629,39.7000366 94.6248177,38.1807776 99.28009,38.1807776 C106.134703,38.1807776 111.229768,41.7135124 114.565435,48.7790878 Z M132.156935,0.400272967 L132.156935,44.1114382 C136.555617,40.1576447 141.412423,38.1807776 146.727498,38.1807776 C152.775686,38.1807776 157.614164,40.1393404 161.243077,44.0565247 C164.322155,47.4611802 165.861671,52.8975648 165.861671,60.3658414 L153.490438,93.1492154 L153.490438,61.5190254 C153.490438,57.2357491 152.729844,54.133166 151.208633,52.2111831 C149.687422,50.2892001 147.240691,49.328223 143.868368,49.328223 C139.542997,49.328223 136.500621,50.6644388 134.741148,53.3369103 C133.018331,56.0459911 132.156935,60.6952896 132.156935,67.2849455 L132.156935,93.1492154 L119.785702,93.1492154 L132.156935,0.400272967 Z M211.65958,39.6634428 L224.085796,39.6634428 L211.65958,93.1492154 L211.65958,87.5480359 C206.56444,92.3072318 201.084497,94.6867941 195.219587,94.6867941 C187.815138,94.6867941 181.69373,92.0143626 176.85518,86.6694195 C172.053285,81.2146488 169.652373,74.4054399 169.652373,66.2415885 C169.652373,58.2241739 172.053285,51.5430952 176.85518,46.1981522 C181.657075,40.8532091 187.668517,38.1807776 194.889687,38.1807776 C201.121154,38.1807776 206.711063,40.7433831 211.65958,45.868671 L211.65958,39.6634428 Z M182.298522,66.2415885 C182.298522,71.3668764 183.67309,75.5402625 186.422266,78.761872 C189.244754,82.0200908 192.800302,83.6491757 197.089018,83.6491757 C201.670979,83.6491757 205.373147,82.0750037 208.195635,78.9266126 C211.018123,75.6683939 212.429346,71.5316164 212.429346,66.5161561 C212.429346,61.5006958 211.018123,57.3639184 208.195635,54.1056997 C205.373147,50.9206993 201.707634,49.328223 197.198984,49.328223 C192.946924,49.328223 189.391376,50.9390036 186.532233,54.1606132 C183.709745,57.4188319 182.298522,61.4457834 182.298522,66.2415885 Z M272.028053,41.9698108 L272.028053,58.3889545 C269.205565,54.9476898 266.676361,52.5864319 264.440364,51.3051099 C262.241023,49.9871787 259.656835,49.328223 256.687725,49.328223 C252.032452,49.328223 248.165335,50.957308 245.086258,54.2155267 C242.00718,57.4737454 240.467664,61.5556099 240.467664,66.4612426 C240.467664,71.4767029 241.952197,75.595176 244.921308,78.8167856 C247.927074,82.0383951 251.757536,83.6491757 256.412808,83.6491757 C259.381919,83.6491757 262.002761,83.0085243 264.275414,81.7272023 C266.474755,80.4824896 269.058942,78.0663187 272.028053,74.4786171 C272.028053,74.4786171 261.98447,94.6867941 256.962641,94.6867941 C248.678456,94.6867941 241.750635,92.0143626 236.17897,86.6694195 C230.607306,81.2878672 227.821515,74.6067886 227.821515,66.6259832 C227.821515,58.6451778 230.643961,51.9091861 236.288937,46.4178063 C241.933913,40.9264264 248.861734,38.1807776 257.072608,38.1807776 C262.351026,38.1807776 267.336125,39.4437761 272.028053,41.9698108 Z M287.03534,0.400272967 L287.03534,56.9612029 L304.465032,39.6634428 L321.069975,39.6634428 L297.812058,62.1230742 L322.774456,93.1492154 L289.014737,70.5797569 L287.03534,72.5566438 L287.03534,93.1492154 L274.664107,93.1492154 L287.03534,0.400272967 Z M62.8843168,17.4234655 C62.8843168,15.2635227 63.6724023,13.3964816 65.2485968,11.822286 C66.8247914,10.2480904 68.7125309,9.46100446 70.9118721,9.46100446 C73.1478691,9.46100446 75.0539362,10.2480904 76.6301307,11.822286 C78.2063253,13.3598724 78.9944107,15.2452178 78.9944107,17.478379 C78.9944107,19.7115401 78.2063253,21.61519 76.6301307,23.1893855 C75.0905919,24.7635811 73.2028523,25.5506671 70.9668554,25.5506671 C68.7308585,25.5506671 66.8247914,24.7635811 65.2485968,23.1893855 C63.6724023,21.61519 62.8843168,19.6932358 62.8843168,17.4234655 Z" id="fill" fill="#1D00FF"></path>
            <path d="M59.0843168,22.4837064 C59.0843168,20.3237637 59.8724023,18.4567225 61.4485968,16.882527 C63.0247914,15.3083314 64.9125309,14.5212454 67.1118721,14.5212454 C69.3478691,14.5212454 71.2539362,15.3083314 72.8301307,16.882527 C74.4063253,18.4201133 75.1944107,20.3054588 75.1944107,22.53862 C75.1944107,24.7717811 74.4063253,26.6754309 72.8301307,28.2496265 C71.2905919,29.823822 69.4028523,30.610908 67.1668554,30.610908 C64.9308585,30.610908 63.0247914,29.823822 61.4485968,28.2496265 C59.8724023,26.6754309 59.0843168,24.7534768 59.0843168,22.4837064 Z" id="Path" fill="#FF0000"></path>
        </g>
    </g>
</svg>